<svg height="512pt" viewBox="0 -31 512.00006 512" width="512pt" xmlns="http://www.w3.org/2000/svg"><g fill="#fecba9"><path d="m18.4375 94.691406c-.007812 0-.011719 0-.019531 0l-10.941407-.03125c-4.140624-.011718-7.4882808-3.382812-7.476562-7.523437.0117188-4.132813 3.367188-7.476563 7.5-7.476563h.023438l10.9375.03125c4.140624.011719 7.488281 3.378906 7.476562 7.523438-.011719 4.132812-3.367188 7.476562-7.5 7.476562zm0 0"/><path d="m13.617188 126.960938c-2.578126 0-5.085938-1.332032-6.480469-3.714844-2.089844-3.574219-.890625-8.167969 2.683593-10.261719l9.492188-5.550781c3.574219-2.09375 8.167969-.890625 10.257812 2.683594 2.09375 3.574218.890626 8.167968-2.683593 10.261718l-9.488281 5.550782c-1.191407.699218-2.496094 1.03125-3.78125 1.03125zm0 0"/><path d="m23.242188 68.007812c-1.300782 0-2.617188-.335937-3.816407-1.050781l-9.457031-5.605469c-3.5625-2.113281-4.738281-6.714843-2.625-10.277343s6.714844-4.738281 10.277344-2.625l9.457031 5.609375c3.5625 2.113281 4.738281 6.710937 2.625 10.273437-1.402344 2.363281-3.898437 3.675781-6.460937 3.675781zm0 0"/><path d="m504.5 131.972656c-.007812 0-.015625 0-.023438 0l-10.9375-.035156c-4.140624-.011719-7.488281-3.378906-7.476562-7.519531.011719-4.136719 3.367188-7.480469 7.5-7.480469h.023438l10.9375.035156c4.140624.011719 7.488281 3.378906 7.476562 7.519532-.011719 4.136718-3.367188 7.480468-7.5 7.480468zm0 0"/><path d="m488.90625 105.226562c-2.574219 0-5.082031-1.328124-6.476562-3.710937-2.09375-3.578125-.890626-8.171875 2.683593-10.261719l9.488281-5.554687c3.574219-2.089844 8.167969-.886719 10.261719 2.6875s.890625 8.167969-2.683593 10.261719l-9.488282 5.550781c-1.191406.695312-2.496094 1.027343-3.785156 1.027343zm0 0"/><path d="m498.199219 164.234375c-1.300781 0-2.621094-.339844-3.816407-1.050781l-9.457031-5.609375c-3.566406-2.113281-4.738281-6.710938-2.628906-10.273438 2.113281-3.566406 6.71875-4.738281 10.277344-2.625l9.457031 5.605469c3.5625 2.113281 4.738281 6.714844 2.625 10.277344-1.398438 2.363281-3.894531 3.675781-6.457031 3.675781zm0 0"/></g><path d="m456.878906 130.960938-32.550781 38.429687c-1.898437 2.238281-4.6875 3.539063-7.628906 3.539063h-148.460938v-96.859376h148.460938c2.941406 0 5.730469 1.289063 7.628906 3.539063l32.550781 38.421875c3.160156 3.730469 3.160156 9.199219 0 12.929688zm0 0" fill="#e78f70"/><path d="m413.570312 147.835938h-137.089843c-4.144531 0-7.5-3.359376-7.5-7.5 0-4.144532 3.355469-7.5 7.5-7.5h137.089843c4.144532 0 7.5 3.355468 7.5 7.5 0 4.140624-3.355468 7.5-7.5 7.5zm0 0" fill="#c87d5b"/><path d="m335.332031 115.777344h-53c-4.140625 0-7.5-3.355469-7.5-7.5 0-4.140625 3.359375-7.5 7.5-7.5h53c4.144531 0 7.5 3.359375 7.5 7.5 0 4.144531-3.355469 7.5-7.5 7.5zm0 0" fill="#c87d5b"/><path d="m268.238281 76.070312h21.242188v96.859376h-21.242188zm0 0" fill="#c87d5b"/><path d="m243.761719 38.699219v96.863281h-148.460938c-2.941406 0-5.730469-1.300781-7.628906-3.542969l-18.792969-22.1875-12.707031-15-1.050781-1.242187c-3.160156-3.730469-3.160156-9.199219 0-12.929688l32.550781-38.417968c1.898437-2.25 4.6875-3.542969 7.628906-3.542969zm0 0" fill="#e78f70"/><path d="m232.519531 79.167969h-88.519531c-4.140625 0-7.5-3.359375-7.5-7.5 0-4.144531 3.359375-7.5 7.5-7.5h88.519531c4.140625 0 7.5 3.355469 7.5 7.5 0 4.140625-3.359375 7.5-7.5 7.5zm0 0" fill="#c87d5b"/><path d="m222.519531 38.699219h21.242188v96.859375h-21.242188zm0 0" fill="#c87d5b"/><path d="m494.285156 450.359375h-476.570312c-5.679688 0-10.234375-4.726563-10-10.398437.347656-8.496094 1.125-16.882813 2.304687-25.132813 5.507813-38.460937 19.820313-74.082031 40.839844-104.75 44.757813-65.351563 119.949219-108.21875 205.140625-108.21875 56.238281 0 108.109375 18.679687 149.75 50.179687 20.25 15.308594 38.089844 33.660157 52.820312 54.359376 17.597657 24.71875 30.789063 52.800781 38.417969 83.089843 4.089844 16.25 6.582031 33.136719 7.296875 50.480469.234375 5.667969-4.324218 10.390625-10 10.390625zm0 0" fill="#39aaff"/><path d="m494.285156 450.359375h-29.785156c0-21-2.609375-41.390625-7.511719-60.871094-7.628906-30.289062-20.816406-58.371093-38.417969-83.089843-14.730468-20.699219-32.570312-39.050782-52.820312-54.359376-36.640625-27.722656-81.210938-45.511718-129.710938-49.382812 6.589844-.527344 13.242188-.796875 19.960938-.796875 56.238281 0 108.109375 18.679687 149.75 50.179687 20.25 15.308594 38.089844 33.660157 52.820312 54.359376 17.601563 24.71875 30.789063 52.800781 38.417969 83.089843 4.089844 16.25 6.582031 33.136719 7.296875 50.480469.234375 5.667969-4.324218 10.390625-10 10.390625zm0 0" fill="#2584f6"/><path d="m318.941406 388.636719c0 14.460937-11.71875 26.191406-26.1875 26.191406h-282.734375c5.511719-38.460937 19.820313-74.082031 40.839844-104.75h90.949219c14.472656 0 26.191406 11.71875 26.191406 26.179687 0 14.46875 11.71875 26.191407 26.191406 26.191407h98.5625c7.230469 0 13.777344 2.929687 18.519532 7.667969 4.738281 4.742187 7.667968 11.289062 7.667968 18.519531zm0 0" fill="#65efa7"/><path d="m504.285156 439.96875c.234375 5.667969-4.324218 10.390625-10 10.390625h-89.84375c-8.402344 0-16.019531-3.410156-21.519531-8.910156-5.671875-5.671875-9.117187-13.5625-8.914063-22.25.390626-16.628907 14.417969-29.710938 31.050782-29.710938h91.933594c4.085937 16.25 6.578124 33.136719 7.292968 50.480469zm0 0" fill="#65efa7"/><path d="m494.285156 450.359375h-29.785156c0-21-2.609375-41.390625-7.511719-60.871094h40c4.089844 16.25 6.582031 33.136719 7.296875 50.480469.234375 5.667969-4.324218 10.390625-10 10.390625zm0 0" fill="#3ad391"/><path d="m458.570312 306.398438h-184.390624c-7.5 0-14.300782-3.039063-19.21875-7.960938-4.921876-4.910156-7.960938-11.710938-7.960938-19.21875 0-15.011719 12.171875-27.179688 27.179688-27.179688h131.570312c20.25 15.308594 38.089844 33.660157 52.820312 54.359376zm0 0" fill="#65efa7"/><path d="m458.570312 306.398438h-40c-14.730468-20.699219-32.570312-39.050782-52.820312-54.359376h40c20.25 15.308594 38.089844 33.660157 52.820312 54.359376zm0 0" fill="#3ad391"/><path d="m276.480469 414.828125h-40.960938v-404.828125c0-5.523438 4.476563-10 10-10h20.960938c5.523437 0 10 4.476562 10 10zm0 0" fill="#fecba9"/><path d="m118 79.222656c-.011719 0-.019531 0-.03125 0-4.144531-.019531-7.488281-3.394531-7.46875-7.535156v-.109375c.019531-4.128906 3.375-7.464844 7.5-7.464844h.035156c4.140625.019531 7.484375 3.390625 7.464844 7.535157v.109374c-.019531 4.128907-3.371094 7.464844-7.5 7.464844zm0 0" fill="#c87d5b"/><path d="m163.828125 102.332031c0 4.140625-3.347656 7.5-7.5 7.5h-87.449219l-12.707031-15h100.15625c4.152344 0 7.5 3.359375 7.5 7.5zm0 0" fill="#c87d5b"/><path d="m358 115.890625c-4.144531 0-7.5-3.359375-7.5-7.5v-.113281c0-4.140625 3.355469-7.5 7.5-7.5s7.5 3.359375 7.5 7.5v.113281c0 4.140625-3.355469 7.5-7.5 7.5zm0 0" fill="#c87d5b"/><path d="m397.332031 115.835938h-15.664062c-4.144531 0-7.5-3.359376-7.5-7.5 0-4.144532 3.355469-7.5 7.5-7.5h15.664062c4.144531 0 7.5 3.355468 7.5 7.5 0 4.140624-3.355469 7.5-7.5 7.5zm0 0" fill="#c87d5b"/></svg>