<svg id="Twotone" height="512" viewBox="0 0 64 64" width="512" xmlns="http://www.w3.org/2000/svg"><g id="Stroke_copy" data-name="Stroke copy"><path d="m32 14a17.72 17.72 0 0 1 1.94.12l-.22-1.41a3 3 0 0 1 -1.72-2.71v-2a1.16 1.16 0 0 0 -1.15 1l-.79 5.13a17.72 17.72 0 0 1 1.94-.13z" fill="#cff09e"/><path d="m15 36h34v6h-34z" fill="#79bd9a"/><path d="m19 36h26v25h-26z" fill="#cff09e"/><path d="m33.91 44.59-1.91-1.59-1.91 1.59a11.37 11.37 0 0 0 -4.09 8.73v7.68h12v-7.68a11.37 11.37 0 0 0 -4.09-8.73z" fill="#79bd9a"/><path d="m19 36h26v4h-26z" fill="#a8dba8"/><path d="m45 43h16v18h-16z" fill="#cff09e"/><path d="m3 43h16v18h-16z" fill="#cff09e"/><path d="m9 31h2v-4h-8v16h8v-4a4 4 0 0 1 -4-4v-2a2 2 0 0 1 2-2z" fill="#cff09e"/><path d="m3 19h8v8h-8z" fill="#a8dba8"/><path d="m11 18.88a5 5 0 0 1 -4-4.88v-4l-4 9h8" fill="#cff09e"/><path d="m59 31h2v-4h-8v16h8v-4a4 4 0 0 1 -4-4v-2a2 2 0 0 1 2-2z" fill="#cff09e"/><path d="m53 19h8v8h-8z" fill="#a8dba8"/><path d="m61 18.88a5 5 0 0 1 -4-4.88v-4l-4 9h8" fill="#cff09e"/><g fill="#79bd9a"><path d="m49.23 52.64-1.23-1.64-1.23 1.64a8.86 8.86 0 0 0 -1.77 5.36v3h6v-3a8.86 8.86 0 0 0 -1.77-5.36z"/><path d="m7.23 52.64-1.23-1.64-1.23 1.64a8.86 8.86 0 0 0 -1.77 5.36v3h6v-3a8.86 8.86 0 0 0 -1.77-5.36z"/><path d="m59.23 52.64-1.23-1.64-1.23 1.64a8.86 8.86 0 0 0 -1.77 5.36v3h6v-3a8.86 8.86 0 0 0 -1.77-5.36z"/><path d="m17.23 52.64-1.23-1.64-1.23 1.64a8.86 8.86 0 0 0 -1.77 5.36v3h6v-3a8.86 8.86 0 0 0 -1.77-5.36z"/></g><path d="m45 43h16v4h-16z" fill="#a8dba8"/><path d="m3 43h16v4h-16z" fill="#a8dba8"/><path d="m48.92 30.1h-6a16 16 0 0 1 -15.82-15.39 17 17 0 0 0 -12.1 16.19v5l34 .2v-5c0-.34-.06-.67-.08-1z" fill="#cff09e"/></g><path d="m62 19a1 1 0 0 0 -.06-.33 0 0 0 0 1 0 0l-3.94-8.88v-3.79a1 1 0 0 0 -2 0v3.79l-3.91 8.8a0 0 0 0 1 0 0 1 1 0 0 0 -.09.41s0 0 0 0v23h-2v-11a18 18 0 0 0 -15.18-17.76l-.66-4.31a4 4 0 0 0 1.67-1 1 1 0 0 0 0-1.41 1 1 0 0 0 -1.42 0 2 2 0 0 1 -2.82 0 2 2 0 0 1 -.59-1.4 2 2 0 0 1 .59-1.41 1 1 0 1 0 -1.42-1.42 4 4 0 0 0 0 5.66 2.2 2.2 0 0 0 -.34.87l-.68 4.4a18 18 0 0 0 -15.15 17.78v11h-2v-23s0 0 0 0a1 1 0 0 0 -.06-.33 0 0 0 0 1 0 0l-3.94-8.88v-3.79a1 1 0 0 0 -2 0v3.79l-3.91 8.8a0 0 0 0 1 0 0 1 1 0 0 0 -.09.41s0 0 0 0v42a1 1 0 0 0 1 1h58a1 1 0 0 0 1-1v-42s0 0 0 0zm-8 39v2h-2v-2a10 10 0 0 0 -2-6l-1.2-1.6a1 1 0 0 0 -1.6 0l-1.2 1.6v-4h14v4l-1.2-1.6a1 1 0 0 0 -1.6 0l-1.2 1.6a10 10 0 0 0 -2 6zm-17-19v-2h2v2zm-4 0v-2h2v2zm-4 0v-2h2v2zm-4 0v-2h2v2zm-5 0v-2h3v2zm-8 19v2h-2v-2a10 10 0 0 0 -2-6l-1.2-1.6a1 1 0 0 0 -1.6 0l-1.2 1.6v-4h14v4l-1.2-1.6a1 1 0 0 0 -1.6 0l-1.2 1.6a10 10 0 0 0 -2 6zm-2-38v6h-2v-6zm8 24v2h-2v-2zm-4 2h-2v-2h2zm-6 0v-2h2v2zm-4 0v-2h2v2zm6-4h-6v-14h6zm-4-16h-2v-6h2zm12 16h-2v-5h2zm23-5h3v2h-3zm7 0v5h-2v-5zm-2 9v-2h2v2zm14-26v6h-2v-6zm-4 6h-2v-6h2zm-2 2h6v14h-6zm6 16v2h-2v-2zm-6 0h2v2h-2zm3-31.54 2.46 5.54h-4.92zm-5 31.54v2h-2v-2zm-20.16-34.86a.17.17 0 0 1 .32 0l.6 3.9c-.25 0-.5 0-.76 0s-.51 0-.76 0zm-15.84 21.86a16 16 0 0 1 32 0v4h-32zm-9-18.54 2.46 5.54h-4.92zm-3 47.54v-2a8 8 0 0 1 1.57-4.73l.43-.6.43.56a8 8 0 0 1 1.57 4.77v2zm10-2a8 8 0 0 1 1.57-4.73l.43-.56.43.56a8 8 0 0 1 1.57 4.73v2h-4zm6-17h24v19h-5v-6.68a12.3 12.3 0 0 0 -4.45-9.49l-1.91-1.6a1 1 0 0 0 -1.28 0l-1.91 1.6a12.3 12.3 0 0 0 -4.45 9.49v6.68h-5zm7 19v-6.68a10.35 10.35 0 0 1 3.73-8l1.27-1.02 1.27 1.06a10.35 10.35 0 0 1 3.73 8v6.64zm19 0v-2a8 8 0 0 1 1.57-4.73l.43-.56.43.56a8 8 0 0 1 1.57 4.73v2zm14 0h-4v-2a8 8 0 0 1 1.57-4.73l.43-.56.43.56a8 8 0 0 1 1.57 4.73z" fill="#3b8686"/></svg>